<svg xmlns="http://www.w3.org/2000/svg" viewBox="0 0 264.48 247.23">
  <defs>
    <style>.cls-1{fill:#f2f2f2;}</style>
  </defs>
  <g id="Layer_2" data-name="Layer 2">
    <g id="Layer_1-2" data-name="Layer 1">
      <circle class="cls-1" cx="146.48" cy="125.9" r="22.16"></circle>
      <path class="cls-1"
        d="M27,122.65c0-.13,0-.26,0-.39l-.16-.13a5.45,5.45,0,0,0-3.29-1.1,5.37,5.37,0,0,0-3.83,1.59,4.45,4.45,0,0,0-.53.62q0,3.38.21,6.72a5.42,5.42,0,0,0,7.77.56l.09-.07C27.07,127.87,27,125.27,27,122.65ZM228.56,35.92a122.67,122.67,0,0,0-173.46,0A123.3,123.3,0,0,0,37.45,58.18a121.23,121.23,0,0,0-17.54,51h7.87a114.44,114.44,0,0,1,24-57.76,115.89,115.89,0,0,1,8.85-9.94,114.82,114.82,0,1,1,102.65,194v8A122.68,122.68,0,0,0,228.56,35.92ZM55.62,198.43a112.43,112.43,0,0,1-9.2-11.94,114,114,0,0,1-17.73-44.06H20.77a121.47,121.47,0,0,0,20.18,50A123.75,123.75,0,0,0,55.1,209.37a121.69,121.69,0,0,0,75,35.36v-7.84A114.64,114.64,0,0,1,55.62,198.43ZM27,122.65c0-.13,0-.26,0-.39l-.16-.13c0,.72-.05,1.45-.05,2.19a50.72,50.72,0,0,0,.38,6.2l.09-.07C27.07,127.87,27,125.27,27,122.65Z"></path>
      <path class="cls-1"
        d="M193.52,71A72.92,72.92,0,0,0,93,68.28C92,69.14,91.06,70,90.14,71q-1.86,1.86-3.57,3.83a73.11,73.11,0,0,0,2.55,98.51l1,1q2.73,2.72,5.69,5.13A73.2,73.2,0,0,0,107,187a72,72,0,0,0,8.94,4.09A73.12,73.12,0,0,0,193.52,71ZM188,168.82a64.83,64.83,0,0,1-46.17,19.12,65.54,65.54,0,0,1-17.68-2.41,64.07,64.07,0,0,1-8.92-3.21,65.14,65.14,0,0,1-11.16-6.39,65.89,65.89,0,0,1-6.68-5.44c-.58-.54-1.16-1.1-1.73-1.67A65.3,65.3,0,0,1,95,77.16c.22-.23.44-.46.67-.68a65.49,65.49,0,0,1,5.73-5.1,63.62,63.62,0,0,1,10.8-6.95,64.34,64.34,0,0,1,8.74-3.67A65.31,65.31,0,0,1,188,168.82Z"></path>
      <path class="cls-1"
        d="M151.76,104.38h0a77.37,77.37,0,0,0-30.83-43.61,74.06,74.06,0,0,0-8.48-5.09A77.18,77.18,0,0,0,41,192.46a77.11,77.11,0,0,0,36.24,9A76.78,76.78,0,0,0,116,191.05a75.83,75.83,0,0,0,8.2-5.52,77.18,77.18,0,0,0,27.61-81.15Zm-36.53,77.94A71.15,71.15,0,0,1,107,187,69.36,69.36,0,0,1,28.15,75.28c.27-.26.54-.54.82-.8a69.37,69.37,0,0,1,114.54,29.46h0a69.37,69.37,0,0,1-1,43.76A69.77,69.77,0,0,1,115.23,182.32Z"></path>
      <path class="cls-1"
        d="M26.79,124.32c0-.74,0-1.47.05-2.19a5.45,5.45,0,0,0-3.29-1.1,5.37,5.37,0,0,0-3.83,1.59,4.45,4.45,0,0,0-.53.62,3,3,0,0,0-.2.29c0,.26,0,.52,0,.79,0,1.83.09,3.64.25,5.44l.17.2a5.42,5.42,0,0,0,7.77.56A50.72,50.72,0,0,1,26.79,124.32Zm106.34-16.1a58.23,58.23,0,0,0-112.15,1h8.13A50.48,50.48,0,0,1,86.57,74.79,49.76,49.76,0,0,1,95,77.16a50.59,50.59,0,0,1,31.85,38.47h0a49.8,49.8,0,0,1,.76,8.69,50.52,50.52,0,0,1-1.2,10.94h0a50.58,50.58,0,0,1-29,35.22,49.09,49.09,0,0,1-8.27,2.81,50.41,50.41,0,0,1-59-30.87H21.86a58.24,58.24,0,0,0,74,37,56.33,56.33,0,0,0,8.24-3.54,58.49,58.49,0,0,0,26.75-29c.55-1.31,1.05-2.64,1.52-4a58.27,58.27,0,0,0,.79-34.74Z"></path>
      <path class="cls-1"
        d="M152.83,241.45a5.79,5.79,0,0,1-9.88,4.09l-.34-.37a5.8,5.8,0,0,1,.34-7.81,5.47,5.47,0,0,1,.58-.5,5.75,5.75,0,0,1,6.65-.27,6.89,6.89,0,0,1,1,.77A5.74,5.74,0,0,1,152.83,241.45Z"></path>
      <path class="cls-1"
        d="M29,126.46a5.41,5.41,0,0,1-1.59,3.85l-.14.14-.09.07A5.42,5.42,0,0,1,19.4,130l-.17-.2a5.48,5.48,0,0,1-1.11-3.3,5.34,5.34,0,0,1,.87-2.93,3,3,0,0,1,.2-.29,4.45,4.45,0,0,1,.53-.62A5.37,5.37,0,0,1,23.55,121a5.45,5.45,0,0,1,3.29,1.1l.16.13c.13.11.27.23.4.36A5.44,5.44,0,0,1,29,126.46Z"></path>
      <path class="cls-1"
        d="M29,126.46a5.41,5.41,0,0,1-1.59,3.85l-.14.14-.09.07A5.42,5.42,0,0,1,19.4,130l-.17-.2a5.48,5.48,0,0,1-1.11-3.3,5.34,5.34,0,0,1,.87-2.93,3,3,0,0,1,.2-.29,4.45,4.45,0,0,1,.53-.62A5.37,5.37,0,0,1,23.55,121a5.45,5.45,0,0,1,3.29,1.1l.16.13c.13.11.27.23.4.36A5.44,5.44,0,0,1,29,126.46Z"></path>
      <path class="cls-1"
        d="M29,126.46a5.41,5.41,0,0,1-1.59,3.85l-.14.14-.09.07A5.42,5.42,0,0,1,19.4,130l-.17-.2a5.48,5.48,0,0,1-1.11-3.3,5.34,5.34,0,0,1,.87-2.93,3,3,0,0,1,.2-.29,4.45,4.45,0,0,1,.53-.62A5.37,5.37,0,0,1,23.55,121a5.45,5.45,0,0,1,3.29,1.1l.16.13c.13.11.27.23.4.36A5.44,5.44,0,0,1,29,126.46Z"></path>
      <path class="cls-1"
        d="M152.83,241.45a5.79,5.79,0,0,1-9.88,4.09l-.34-.37a5.8,5.8,0,0,1,.34-7.81,5.47,5.47,0,0,1,.58-.5,5.75,5.75,0,0,1,6.65-.27,6.89,6.89,0,0,1,1,.77A5.74,5.74,0,0,1,152.83,241.45Z"></path>
    </g>
  </g>
</svg>