<svg
	xmlns="http://www.w3.org/2000/svg"
	xmlns:xlink="http://www.w3.org/1999/xlink"
	id="Glyph"
	x="0px"
	y="0px"
	viewBox="0 0 48 48"
	xml:space="preserve"
>
	<g>
		<circle
			cx="24"
			cy="24"
			r="2.25"
		></circle>
		<path
			d="M24,18.75c-2.89502,0-5.25,2.35547-5.25,5.25s2.35498,5.25,5.25,5.25c2.89453,0,5.25-2.35547,5.25-5.25  S26.89453,18.75,24,18.75z M24,27.75c-2.06787,0-3.75-1.68262-3.75-3.75s1.68213-3.75,3.75-3.75c2.06738,0,3.75,1.68262,3.75,3.75  S26.06738,27.75,24,27.75z"
		></path>
		<path
			d="M33.25592,29.21198c-0.64459-0.84253-0.13684-2.20496,0.97357-2.35358c0.86719-0.11328,1.52051-0.85938,1.52051-1.73438  v-2.24805c0-0.8739-0.65308-1.61987-1.51953-1.73535c-1.08044-0.14447-1.63599-1.48773-0.97461-2.35352  c0.53125-0.69336,0.46582-1.68262-0.15234-2.30078l-1.58984-1.58984c-0.61707-0.61908-1.60712-0.68359-2.2995-0.15259  c-0.88214,0.67651-2.20911,0.11743-2.3548-0.97534C26.74414,12.90332,25.99805,12.25,25.12402,12.25h-2.24854  c-0.87292,0-1.6189,0.65308-1.7348,1.5191c-0.14764,1.10315-1.46698,1.6535-2.35309,0.97504  c-0.6958-0.53125-1.68457-0.46582-2.30078,0.15234l-1.59033,1.58984c-0.61804,0.61804-0.68359,1.60608-0.15314,2.29944  c0.67279,0.87933,0.11438,2.20953-0.97528,2.35486C12.90283,21.25586,12.25,22.00195,12.25,22.87598v2.24805  c0,0.87482,0.65308,1.62079,1.51758,1.73431c1.09259,0.14343,1.64319,1.48254,0.97607,2.35455  c-0.53076,0.69434-0.46533,1.68262,0.15283,2.30078l1.59033,1.58984c0.6181,0.61707,1.60614,0.68256,2.29999,0.15259  c0.88715-0.67773,2.20721-0.12775,2.35431,0.97534c0.11523,0.86523,0.86133,1.51855,1.73438,1.51855h2.24854  c0.87396,0,1.62-0.6532,1.73529-1.51929c0.14703-1.10376,1.46741-1.65387,2.35358-0.97485  c0.69238,0.53125,1.68359,0.46582,2.30078-0.15234l1.58984-1.58984C33.72168,30.89551,33.78711,29.90631,33.25592,29.21198z   M24,30.75c-3.72217,0-6.75-3.02832-6.75-6.75s3.02783-6.75,6.75-6.75c3.72168,0,6.75,3.02832,6.75,6.75S27.72168,30.75,24,30.75z"
		></path>
		<path
			d="M23.25,6.63293V10c0,0.41406,0.33594,0.75,0.75,0.75s0.75-0.33594,0.75-0.75V6.63293c1.15063-0.32886,2-1.37805,2-2.63293  c0-1.5166-1.2334-2.75-2.75-2.75S21.25,2.4834,21.25,4C21.25,5.25488,22.09937,6.30408,23.25,6.63293z"
		></path>
		<path
			d="M34.42981,14.6308l2.38092-2.38086c1.04614,0.58112,2.38861,0.43982,3.27594-0.44757  c1.07239-1.07239,1.07239-2.81665,0-3.88904c-1.07239-1.07245-2.81665-1.07245-3.8891,0  c-0.88733,0.88733-1.02863,2.2298-0.44751,3.27594l-2.38092,2.38086c-0.29279,0.29285-0.29279,0.76788,0,1.06067  S34.13702,14.92358,34.42981,14.6308z"
		></path>
		<path
			d="M44,21.25c-1.25488,0-2.30408,0.84937-2.63293,2H38c-0.41406,0-0.75,0.33594-0.75,0.75s0.33594,0.75,0.75,0.75h3.36707  c0.32886,1.15063,1.37805,2,2.63293,2c1.5166,0,2.75-1.2334,2.75-2.75S45.5166,21.25,44,21.25z"
		></path>
		<path
			d="M36.81073,35.75l-2.38092-2.38086c-0.29279-0.29279-0.76788-0.29279-1.06067,0s-0.29279,0.76788,0,1.06067l2.38092,2.38086  c-0.58112,1.0462-0.43982,2.38867,0.44751,3.276c1.07245,1.07239,2.81671,1.07239,3.8891,0s1.07239-2.81671,0-3.8891  C39.19934,35.31024,37.85687,35.16895,36.81073,35.75z"
		></path>
		<path
			d="M24.75,41.36707V38c0-0.41406-0.33594-0.75-0.75-0.75s-0.75,0.33594-0.75,0.75v3.36707  c-1.15063,0.32886-2,1.37805-2,2.63293c0,1.5166,1.2334,2.75,2.75,2.75s2.75-1.2334,2.75-2.75  C26.75,42.74512,25.90063,41.69592,24.75,41.36707z"
		></path>
		<path
			d="M13.57019,33.36914L11.18927,35.75c-1.04614-0.58105-2.38861-0.43976-3.27594,0.44757  c-1.07239,1.07239-1.07239,2.81671,0,3.8891s2.81665,1.07239,3.8891,0c0.88733-0.88733,1.02863-2.2298,0.44751-3.276  l2.38092-2.38086c0.29279-0.29279,0.29279-0.76788,0-1.06067S13.86298,33.07635,13.57019,33.36914z"
		></path>
		<path
			d="M10.75,24c0-0.41406-0.33594-0.75-0.75-0.75H6.63293c-0.32886-1.15063-1.37805-2-2.63293-2  c-1.5166,0-2.75,1.2334-2.75,2.75S2.4834,26.75,4,26.75c1.25488,0,2.30408-0.84937,2.63293-2H10  C10.41406,24.75,10.75,24.41406,10.75,24z"
		></path>
		<path
			d="M11.18927,12.24994l2.38092,2.38086c0.29279,0.29279,0.76788,0.29279,1.06067,0s0.29279-0.76782,0-1.06067  l-2.38092-2.38086c0.58112-1.04614,0.43982-2.38861-0.44751-3.27594c-1.07245-1.07245-2.81671-1.07245-3.8891,0  c-1.07239,1.07239-1.07239,2.81665,0,3.88904C8.80066,12.68976,10.14313,12.83105,11.18927,12.24994z"
		></path>
	</g>
</svg>